<svg version="1.1" id="Layer_1" xmlns="http://www.w3.org/2000/svg" xmlns:xlink="http://www.w3.org/1999/xlink" x="0px" y="0px"
	 width="100%" viewBox="0 0 1024 1024" enable-background="new 0 0 1024 1024" xml:space="preserve">
<path fill="#000000" opacity="1.000000" stroke="none" 
	d="
M700.875366,646.782776 
	C690.561035,662.894714 677.004883,674.459595 659.153320,680.711487 
	C656.433411,681.664062 654.315247,682.865540 652.990906,685.903809 
	C640.897888,713.648376 619.410156,730.019592 590.184875,736.319763 
	C567.922485,741.118896 546.716003,738.756165 528.100159,724.354309 
	C523.275452,720.621887 519.091003,716.061707 514.446228,711.726624 
	C509.014221,716.419495 503.590485,720.758484 497.817352,724.703186 
	C474.672821,740.517700 449.923767,741.750977 424.443481,732.272095 
	C401.401520,723.700256 384.142700,708.532410 375.524078,684.815857 
	C374.616486,682.318359 372.947998,681.169556 370.556152,680.457703 
	C336.611694,670.355469 318.275879,646.697266 311.961700,612.711975 
	C311.326324,609.291992 310.770874,605.711426 311.092041,602.291199 
	C311.684875,595.978027 308.878876,591.367188 305.484619,586.412720 
	C278.616150,547.193787 280.677002,489.295044 318.969025,455.851868 
	C321.073212,454.014160 321.516632,451.979126 321.258209,449.205261 
	C318.606659,420.742859 326.829620,396.177643 348.326080,376.821716 
	C359.022614,367.190338 371.325104,360.279144 385.987000,358.759430 
	C389.112518,358.435425 389.673981,356.413086 390.478912,354.250153 
	C395.011597,342.070740 400.696442,330.221436 411.081573,322.263641 
	C430.987305,307.010437 453.310699,298.216034 479.010437,302.755157 
	C490.476471,304.780304 499.122864,312.203369 507.005096,320.191376 
	C510.699860,323.935669 512.785889,323.825043 516.615234,320.239288 
	C536.582520,301.542267 567.507935,295.590729 596.559692,310.110291 
	C605.414062,314.535583 613.729309,319.669220 620.604187,326.899048 
	C627.463806,334.112823 631.802795,342.649689 633.172607,352.473663 
	C633.610779,355.616028 635.071350,356.784637 637.709656,357.441895 
	C641.582153,358.406647 645.558533,359.105774 649.286987,360.473419 
	C677.712036,370.900024 694.681580,391.313690 701.300598,420.632416 
	C703.047791,428.371307 702.788635,436.266693 701.949524,443.994171 
	C701.518372,447.964111 702.454468,450.155762 705.319397,452.425873 
	C720.631836,464.559265 730.690125,480.188049 734.817688,499.253540 
	C740.964783,527.646729 737.483215,554.232300 718.481812,577.463440 
	C715.646545,580.929810 715.110413,584.950562 715.330627,589.217773 
	C716.390137,609.749146 711.690735,628.849731 700.875366,646.782776 
M344.072327,547.464722 
	C348.511200,544.236267 353.340668,542.208191 358.962769,542.721008 
	C363.982178,543.178772 368.332397,546.640137 369.501312,551.353882 
	C370.645813,555.969055 367.813995,558.846130 364.628540,561.459839 
	C363.856598,562.093201 363.059296,562.704712 362.224579,563.251221 
	C350.646881,570.831604 343.196503,581.690613 337.762756,594.124207 
	C335.796417,598.623657 334.879272,603.414612 335.453033,608.278381 
	C337.800903,628.182678 347.890991,643.546448 363.977875,654.984558 
	C371.295624,660.187683 375.134338,658.633667 378.344452,650.322693 
	C378.944489,648.769165 379.416290,647.151855 380.159088,645.670166 
	C384.085876,637.837219 389.069977,631.124939 398.395538,629.316956 
	C403.570526,628.313782 409.495300,631.304688 411.747498,636.006531 
	C414.067291,640.849487 411.661835,644.153381 408.270294,647.371643 
	C396.363708,658.669800 394.857635,674.625061 404.279358,688.134827 
	C418.476929,708.492676 447.424957,718.110718 470.911865,709.982849 
	C485.423553,704.960938 495.633240,695.653259 498.321594,679.824585 
	C500.485748,667.082092 496.792114,655.749146 489.180695,645.590820 
	C479.966797,633.293823 469.666779,621.983032 458.175812,611.750488 
	C446.856476,601.670837 435.354095,591.789246 424.949493,580.717529 
	C406.790955,561.394775 395.872925,539.556274 399.736237,512.073792 
	C405.795685,468.969025 455.881805,440.311951 495.600555,457.402710 
	C499.833221,459.224030 501.763397,458.065704 501.480377,453.575043 
	C500.242493,433.934235 501.103577,414.261383 500.506348,394.620667 
	C500.062134,380.013641 500.396637,365.285675 496.751556,350.921936 
	C493.546997,338.294159 485.890533,330.234009 473.032440,327.326385 
	C453.523773,322.914825 429.268250,332.613251 418.130493,349.316223 
	C411.529877,359.214935 412.886566,363.264771 424.128418,367.212036 
	C424.598999,367.377289 425.079346,367.514618 425.554291,367.667694 
	C439.007751,372.004150 449.895813,379.883301 457.982086,391.479675 
	C461.331970,396.283630 464.205170,401.391174 464.258179,407.518066 
	C464.304321,412.852753 461.698395,416.744415 457.098877,418.400543 
	C452.814545,419.943146 447.647705,418.436493 444.589478,414.517456 
	C443.163971,412.690704 442.087799,410.589996 440.867310,408.604828 
	C424.582611,382.117279 390.727020,374.216919 367.960083,392.524445 
	C352.819550,404.699524 345.311096,421.396454 345.130096,441.056976 
	C345.060547,448.611145 347.724518,450.926880 355.243896,449.894135 
	C362.993042,448.829865 370.719269,447.598785 378.469055,446.539581 
	C382.785309,445.949677 386.747253,447.084808 390.261261,449.629883 
	C393.746185,452.153931 395.740875,455.542297 395.109894,459.923462 
	C394.438080,464.588135 391.745605,467.794434 387.229523,469.368469 
	C383.656006,470.613983 379.952087,470.471008 376.344543,469.922546 
	C371.192719,469.139374 366.037842,469.189850 360.885651,469.335754 
	C339.006775,469.955414 325.060730,479.962646 317.232391,500.396271 
	C313.350037,510.529968 312.113464,521.108582 312.509583,531.800598 
	C312.868103,541.479187 314.674835,551.022705 318.833252,559.889771 
	C322.289886,567.260315 325.812897,567.564148 330.731384,561.171692 
	C334.499878,556.273865 338.348541,551.466003 344.072327,547.464722 
M537.405396,457.711365 
	C561.625977,447.502777 584.365662,451.474731 605.916504,465.179810 
	C629.573975,480.224579 641.992493,510.492584 632.590515,539.454712 
	C626.663025,557.713867 615.321533,572.061951 601.661743,584.722900 
	C585.881836,599.348877 570.844604,614.690002 555.889893,630.124268 
	C546.481628,639.834229 537.517700,649.848694 533.058350,663.107056 
	C524.840576,687.539795 538.723633,711.318787 563.546570,714.700562 
	C591.391235,718.493896 612.534180,707.300171 628.332886,684.969360 
	C633.402649,677.803406 636.295044,669.673889 636.117065,660.625793 
	C635.933105,651.275757 631.664124,646.005310 622.532898,644.380798 
	C621.224121,644.148010 619.884277,644.010864 618.618042,643.631653 
	C610.560913,641.218079 608.357971,633.484375 613.975647,627.213562 
	C617.890747,622.843262 623.102905,621.621887 628.570923,622.447632 
	C643.389404,624.685303 651.996582,634.013489 656.463623,647.786804 
	C658.705139,654.698242 660.322388,655.133972 665.471802,650.319336 
	C683.648438,633.324585 690.910278,611.814026 691.583008,587.526489 
	C691.985168,573.006409 687.093140,561.461670 673.634338,554.492310 
	C672.320557,553.812073 671.133972,552.825562 670.017029,551.835938 
	C663.576050,546.129150 664.806213,538.205688 672.668701,534.537170 
	C677.444763,532.308716 682.123901,533.109985 686.647888,535.206116 
	C692.232483,537.793701 696.360107,542.124695 700.116150,546.883972 
	C704.530212,552.477051 706.825562,552.152161 710.064209,545.714172 
	C711.355103,543.148010 712.304443,540.445679 712.603943,537.649231 
	C714.897766,516.226868 710.258545,496.331573 699.361572,477.782501 
	C695.879395,471.855042 690.904114,470.157745 684.523071,471.525848 
	C679.639160,472.572937 674.787720,473.774597 669.895935,474.781586 
	C665.085571,475.771851 661.836670,473.665314 659.889343,469.323883 
	C656.724487,462.268250 660.314453,455.222260 669.058167,452.568481 
	C674.597595,450.887268 677.239807,447.935394 677.729492,442.046326 
	C680.016724,414.537140 666.289673,396.086670 644.259338,382.412079 
	C636.835388,377.803925 634.063782,378.716797 628.711304,385.739868 
	C616.218079,402.132385 600.004150,412.856262 579.930725,417.602325 
	C571.664490,419.556763 566.063904,414.690216 566.722839,406.271484 
	C567.142883,400.904907 569.964050,397.426117 575.117371,395.631775 
	C586.333496,391.726318 596.317566,385.909546 603.651978,376.272827 
	C612.095764,365.178406 612.103821,356.077515 603.775085,344.834137 
	C601.575012,341.864197 598.919434,339.342285 595.986328,337.118561 
	C584.127380,328.127777 570.768555,324.859558 556.012939,326.212891 
	C539.853455,327.694977 527.422119,340.305206 527.199524,356.596527 
	C526.741699,390.087128 526.579895,423.581848 526.331360,457.075104 
	C526.317383,458.972137 525.805115,461.180023 528.487549,462.372650 
	C531.150146,460.961121 533.929016,459.488007 537.405396,457.711365 
M456.155945,479.402588 
	C448.747742,480.756317 442.274841,483.685486 437.203796,489.568939 
	C420.185455,509.313751 419.362549,536.030212 435.377411,556.557800 
	C441.548248,564.467407 448.942719,571.209900 456.245605,578.041870 
	C476.291779,596.795471 497.424469,614.547424 512.215637,638.193848 
	C514.427002,641.729187 516.310425,640.815491 518.036621,637.763672 
	C521.413818,631.792969 525.389160,626.246033 530.103210,621.266724 
	C541.446045,609.285583 553.281860,597.798462 565.355469,586.560120 
	C579.646484,573.257629 593.735352,559.804077 603.545410,542.605957 
	C606.953186,536.631836 610.001892,530.508057 610.648804,523.569031 
	C612.293152,505.929291 602.620117,488.935333 586.597107,480.991730 
	C571.280212,473.398163 552.426697,476.371857 539.257019,488.501251 
	C533.377319,493.916504 527.538269,499.376312 521.712219,504.849274 
	C517.539307,508.769348 515.040283,508.873291 510.352295,505.268127 
	C504.909729,501.082611 500.037689,496.315979 495.762695,490.949615 
	C489.298462,482.834991 480.872467,478.917145 470.534058,479.058899 
	C466.036865,479.120544 461.540375,479.236542 456.155945,479.402588 
z"/>
</svg>